<svg width="1920" height="1080" viewBox="0 0 1920 1080" fill="none" xmlns="http://www.w3.org/2000/svg">
<rect width="1920" height="1080" fill="url(#paint0_linear_19_69)"/>
<path fill-rule="evenodd" clip-rule="evenodd" d="M48 550H58.6667V638.333H48V550ZM182.048 553.709L191.285 558.126L137.952 634.624L128.715 630.208L182.048 553.709ZM75.3812 642.042L84.6188 646.459L31.2855 722.958L22.0479 718.541L75.3812 642.042ZM310.188 568.258L315.521 575.908L223.145 620.075L217.812 612.425L310.188 568.258ZM96.8547 744.925L102.188 752.575L9.81198 796.742L4.47865 789.092L96.8547 744.925ZM426.667 589.75V598.583H320V589.75H426.667ZM106.667 854.75V863.583H0V854.75H106.667ZM529.709 611.833L524.376 619.483L432 575.317L437.333 567.667L529.709 611.833ZM103.043 965.167L97.7094 972.817L5.33333 928.65L10.6667 921L103.043 965.167ZM617.952 630.208L608.715 634.624L555.381 558.126L564.619 553.709L617.952 630.208ZM84.6188 1071.87L75.3812 1076.29L22.0479 999.792L31.2855 995.376L84.6188 1071.87ZM203.521 656.592L208.855 664.242L116.479 708.408L111.145 700.758L203.521 656.592ZM320 678.083V686.917H213.333V678.083H320ZM423.043 700.167L417.709 707.817L325.333 663.65L330.667 656L423.043 700.167ZM511.285 718.541L502.048 722.958L448.715 646.459L457.952 642.042L511.285 718.541ZM592 726.667H581.333V638.333H592V726.667ZM608.715 730.376L617.952 734.792L564.619 811.291L555.381 806.874L608.715 730.376ZM213.333 766.417V775.25H106.667V766.417H213.333ZM316.376 788.5L311.043 796.15L218.667 751.983L224 744.333L316.376 788.5ZM404.619 806.874L395.381 811.291L342.048 734.792L351.285 730.376L404.619 806.874ZM485.333 815H474.667V726.667H485.333V815ZM502.048 818.709L511.285 823.126L457.952 899.624L448.715 895.208L502.048 818.709ZM630.188 833.258L635.521 840.908L543.145 885.075L537.812 877.425L630.188 833.258ZM209.709 876.833L204.376 884.483L112 840.317L117.333 832.667L209.709 876.833ZM297.952 895.208L288.715 899.624L235.381 823.126L244.619 818.709L297.952 895.208ZM378.667 903.333H368V815H378.667V903.333ZM395.381 907.042L404.619 911.459L351.285 987.958L342.048 983.541L395.381 907.042ZM523.521 921.592L528.855 929.242L436.479 973.408L431.145 965.758L523.521 921.592ZM640 943.083V951.917H533.333V943.083H640ZM191.285 983.541L182.048 987.958L128.715 911.459L137.952 907.042L191.285 983.541ZM272 991.667H261.333V903.333H272V991.667ZM288.715 995.376L297.952 999.792L244.619 1076.29L235.381 1071.87L288.715 995.376ZM416.855 1009.93L422.188 1017.57L329.812 1061.74L324.479 1054.09L416.855 1009.93ZM533.333 1031.42V1040.25H426.667V1031.42H533.333ZM636.376 1053.5L631.043 1061.15L538.667 1016.98L544 1009.33L636.376 1053.5ZM165.333 1080H154.667V991.667H165.333V1080Z" fill="white" fill-opacity="0.04"/>
<path fill-rule="evenodd" clip-rule="evenodd" d="M688 550H698.667V638.333H688V550ZM822.048 553.709L831.285 558.126L777.952 634.624L768.715 630.208L822.048 553.709ZM715.381 642.042L724.619 646.459L671.285 722.958L662.048 718.541L715.381 642.042ZM950.188 568.258L955.521 575.908L863.145 620.075L857.812 612.425L950.188 568.258ZM736.855 744.925L742.188 752.575L649.812 796.742L644.479 789.092L736.855 744.925ZM1066.67 589.75V598.583H960V589.75H1066.67ZM746.667 854.75V863.583H640V854.75H746.667ZM1169.71 611.833L1164.38 619.483L1072 575.317L1077.33 567.667L1169.71 611.833ZM743.043 965.167L737.709 972.817L645.333 928.65L650.667 921L743.043 965.167ZM1257.95 630.208L1248.71 634.624L1195.38 558.126L1204.62 553.709L1257.95 630.208ZM724.619 1071.87L715.381 1076.29L662.048 999.792L671.285 995.376L724.619 1071.87ZM843.521 656.592L848.855 664.242L756.479 708.408L751.145 700.758L843.521 656.592ZM960 678.083V686.917H853.333V678.083H960ZM1063.04 700.167L1057.71 707.817L965.333 663.65L970.667 656L1063.04 700.167ZM1151.29 718.541L1142.05 722.958L1088.71 646.459L1097.95 642.042L1151.29 718.541ZM1232 726.667H1221.33V638.333H1232V726.667ZM1248.71 730.376L1257.95 734.792L1204.62 811.291L1195.38 806.874L1248.71 730.376ZM853.333 766.417V775.25H746.667V766.417H853.333ZM956.376 788.5L951.043 796.15L858.667 751.983L864 744.333L956.376 788.5ZM1044.62 806.874L1035.38 811.291L982.048 734.792L991.285 730.376L1044.62 806.874ZM1125.33 815H1114.67V726.667H1125.33V815ZM1142.05 818.709L1151.29 823.126L1097.95 899.624L1088.71 895.208L1142.05 818.709ZM1270.19 833.258L1275.52 840.908L1183.15 885.075L1177.81 877.425L1270.19 833.258ZM849.709 876.833L844.376 884.483L752 840.317L757.333 832.667L849.709 876.833ZM937.952 895.208L928.715 899.624L875.381 823.126L884.619 818.709L937.952 895.208ZM1018.67 903.333H1008V815H1018.67V903.333ZM1035.38 907.042L1044.62 911.459L991.285 987.958L982.048 983.541L1035.38 907.042ZM1163.52 921.592L1168.85 929.242L1076.48 973.408L1071.15 965.758L1163.52 921.592ZM1280 943.083V951.917H1173.33V943.083H1280ZM831.285 983.541L822.048 987.958L768.715 911.459L777.952 907.042L831.285 983.541ZM912 991.667H901.333V903.333H912V991.667ZM928.715 995.376L937.952 999.792L884.619 1076.29L875.381 1071.87L928.715 995.376ZM1056.85 1009.93L1062.19 1017.57L969.812 1061.74L964.479 1054.09L1056.85 1009.93ZM1173.33 1031.42V1040.25H1066.67V1031.42H1173.33ZM1276.38 1053.5L1271.04 1061.15L1178.67 1016.98L1184 1009.33L1276.38 1053.5ZM805.333 1080H794.667V991.667H805.333V1080Z" fill="white" fill-opacity="0.04"/>
<path fill-rule="evenodd" clip-rule="evenodd" d="M1328 550H1338.67V638.333H1328V550ZM1462.05 553.709L1471.29 558.126L1417.95 634.624L1408.71 630.208L1462.05 553.709ZM1355.38 642.042L1364.62 646.459L1311.29 722.958L1302.05 718.541L1355.38 642.042ZM1590.19 568.258L1595.52 575.908L1503.15 620.075L1497.81 612.425L1590.19 568.258ZM1376.85 744.925L1382.19 752.575L1289.81 796.742L1284.48 789.092L1376.85 744.925ZM1706.67 589.75V598.583H1600V589.75H1706.67ZM1386.67 854.75V863.583H1280V854.75H1386.67ZM1809.71 611.833L1804.38 619.483L1712 575.317L1717.33 567.667L1809.71 611.833ZM1383.04 965.167L1377.71 972.817L1285.33 928.65L1290.67 921L1383.04 965.167ZM1897.95 630.208L1888.71 634.624L1835.38 558.126L1844.62 553.709L1897.95 630.208ZM1364.62 1071.87L1355.38 1076.29L1302.05 999.792L1311.29 995.376L1364.62 1071.87ZM1483.52 656.592L1488.85 664.242L1396.48 708.408L1391.15 700.758L1483.52 656.592ZM1600 678.083V686.917H1493.33V678.083H1600ZM1703.04 700.167L1697.71 707.817L1605.33 663.65L1610.67 656L1703.04 700.167ZM1791.29 718.541L1782.05 722.958L1728.71 646.459L1737.95 642.042L1791.29 718.541ZM1872 726.667H1861.33V638.333H1872V726.667ZM1888.71 730.376L1897.95 734.792L1844.62 811.291L1835.38 806.874L1888.71 730.376ZM1493.33 766.417V775.25H1386.67V766.417H1493.33ZM1596.38 788.5L1591.04 796.15L1498.67 751.983L1504 744.333L1596.38 788.5ZM1684.62 806.874L1675.38 811.291L1622.05 734.792L1631.29 730.376L1684.62 806.874ZM1765.33 815H1754.67V726.667H1765.33V815ZM1782.05 818.709L1791.29 823.126L1737.95 899.624L1728.71 895.208L1782.05 818.709ZM1910.19 833.258L1915.52 840.908L1823.15 885.075L1817.81 877.425L1910.19 833.258ZM1489.71 876.833L1484.38 884.483L1392 840.317L1397.33 832.667L1489.71 876.833ZM1577.95 895.208L1568.71 899.624L1515.38 823.126L1524.62 818.709L1577.95 895.208ZM1658.67 903.333H1648V815H1658.67V903.333ZM1675.38 907.042L1684.62 911.459L1631.29 987.958L1622.05 983.541L1675.38 907.042ZM1803.52 921.592L1808.85 929.242L1716.48 973.408L1711.15 965.758L1803.52 921.592ZM1920 943.083V951.917H1813.33V943.083H1920ZM1471.29 983.541L1462.05 987.958L1408.71 911.459L1417.95 907.042L1471.29 983.541ZM1552 991.667H1541.33V903.333H1552V991.667ZM1568.71 995.376L1577.95 999.792L1524.62 1076.29L1515.38 1071.87L1568.71 995.376ZM1696.85 1009.93L1702.19 1017.57L1609.81 1061.74L1604.48 1054.09L1696.85 1009.93ZM1813.33 1031.42V1040.25H1706.67V1031.42H1813.33ZM1916.38 1053.5L1911.04 1061.15L1818.67 1016.98L1824 1009.33L1916.38 1053.5ZM1445.33 1080H1434.67V991.667H1445.33V1080Z" fill="white" fill-opacity="0.04"/>
<path fill-rule="evenodd" clip-rule="evenodd" d="M48 10H58.6667V98.3333H48V10ZM182.048 13.7089L191.285 18.1255L137.952 94.6245L128.715 90.2078L182.048 13.7089ZM75.3812 102.042L84.6188 106.459L31.2855 182.958L22.0479 178.541L75.3812 102.042ZM310.188 28.2584L315.521 35.9083L223.145 80.0749L217.812 72.4251L310.188 28.2584ZM96.8547 204.925L102.188 212.575L9.81198 256.742L4.47865 249.092L96.8547 204.925ZM426.667 49.75V58.5833H320V49.75H426.667ZM106.667 314.75V323.583H0V314.75H106.667ZM529.709 71.8333L524.376 79.4832L432 35.3166L437.333 27.6667L529.709 71.8333ZM103.043 425.167L97.7094 432.817L5.33333 388.65L10.6667 381L103.043 425.167ZM617.952 90.2078L608.715 94.6245L555.381 18.1255L564.619 13.7089L617.952 90.2078ZM84.6188 531.874L75.3812 536.291L22.0479 459.792L31.2855 455.376L84.6188 531.874ZM203.521 116.592L208.855 124.242L116.479 168.408L111.145 160.758L203.521 116.592ZM320 138.083V146.917H213.333V138.083H320ZM423.043 160.167L417.709 167.817L325.333 123.65L330.667 116L423.043 160.167ZM511.285 178.541L502.048 182.958L448.715 106.459L457.952 102.042L511.285 178.541ZM592 186.667H581.333V98.3333H592V186.667ZM608.715 190.376L617.952 194.792L564.619 271.291L555.381 266.874L608.715 190.376ZM213.333 226.417V235.25H106.667V226.417H213.333ZM316.376 248.5L311.043 256.15L218.667 211.983L224 204.333L316.376 248.5ZM404.619 266.874L395.381 271.291L342.048 194.792L351.285 190.376L404.619 266.874ZM485.333 275H474.667V186.667H485.333V275ZM502.048 278.709L511.285 283.126L457.952 359.624L448.715 355.208L502.048 278.709ZM630.188 293.258L635.521 300.908L543.145 345.075L537.812 337.425L630.188 293.258ZM209.709 336.833L204.376 344.483L112 300.317L117.333 292.667L209.709 336.833ZM297.952 355.208L288.715 359.624L235.381 283.126L244.619 278.709L297.952 355.208ZM378.667 363.333H368V275H378.667V363.333ZM395.381 367.042L404.619 371.459L351.285 447.958L342.048 443.541L395.381 367.042ZM523.521 381.592L528.855 389.242L436.479 433.408L431.145 425.758L523.521 381.592ZM640 403.083V411.917H533.333V403.083H640ZM191.285 443.541L182.048 447.958L128.715 371.459L137.952 367.042L191.285 443.541ZM272 451.667H261.333V363.333H272V451.667ZM288.715 455.376L297.952 459.792L244.619 536.291L235.381 531.874L288.715 455.376ZM416.855 469.925L422.188 477.575L329.812 521.742L324.479 514.092L416.855 469.925ZM533.333 491.417V500.25H426.667V491.417H533.333ZM636.376 513.5L631.043 521.15L538.667 476.983L544 469.333L636.376 513.5ZM165.333 540H154.667V451.667H165.333V540Z" fill="white" fill-opacity="0.04"/>
<path fill-rule="evenodd" clip-rule="evenodd" d="M688 10H698.667V98.3333H688V10ZM822.048 13.7089L831.285 18.1255L777.952 94.6245L768.715 90.2078L822.048 13.7089ZM715.381 102.042L724.619 106.459L671.285 182.958L662.048 178.541L715.381 102.042ZM950.188 28.2584L955.521 35.9083L863.145 80.0749L857.812 72.4251L950.188 28.2584ZM736.855 204.925L742.188 212.575L649.812 256.742L644.479 249.092L736.855 204.925ZM1066.67 49.75V58.5833H960V49.75H1066.67ZM746.667 314.75V323.583H640V314.75H746.667ZM1169.71 71.8333L1164.38 79.4832L1072 35.3166L1077.33 27.6667L1169.71 71.8333ZM743.043 425.167L737.709 432.817L645.333 388.65L650.667 381L743.043 425.167ZM1257.95 90.2078L1248.71 94.6245L1195.38 18.1255L1204.62 13.7089L1257.95 90.2078ZM724.619 531.874L715.381 536.291L662.048 459.792L671.285 455.376L724.619 531.874ZM843.521 116.592L848.855 124.242L756.479 168.408L751.145 160.758L843.521 116.592ZM960 138.083V146.917H853.333V138.083H960ZM1063.04 160.167L1057.71 167.817L965.333 123.65L970.667 116L1063.04 160.167ZM1151.29 178.541L1142.05 182.958L1088.71 106.459L1097.95 102.042L1151.29 178.541ZM1232 186.667H1221.33V98.3333H1232V186.667ZM1248.71 190.376L1257.95 194.792L1204.62 271.291L1195.38 266.874L1248.71 190.376ZM853.333 226.417V235.25H746.667V226.417H853.333ZM956.376 248.5L951.043 256.15L858.667 211.983L864 204.333L956.376 248.5ZM1044.62 266.874L1035.38 271.291L982.048 194.792L991.285 190.376L1044.62 266.874ZM1125.33 275H1114.67V186.667H1125.33V275ZM1142.05 278.709L1151.29 283.126L1097.95 359.624L1088.71 355.208L1142.05 278.709ZM1270.19 293.258L1275.52 300.908L1183.15 345.075L1177.81 337.425L1270.19 293.258ZM849.709 336.833L844.376 344.483L752 300.317L757.333 292.667L849.709 336.833ZM937.952 355.208L928.715 359.624L875.381 283.126L884.619 278.709L937.952 355.208ZM1018.67 363.333H1008V275H1018.67V363.333ZM1035.38 367.042L1044.62 371.459L991.285 447.958L982.048 443.541L1035.38 367.042ZM1163.52 381.592L1168.85 389.242L1076.48 433.408L1071.15 425.758L1163.52 381.592ZM1280 403.083V411.917H1173.33V403.083H1280ZM831.285 443.541L822.048 447.958L768.715 371.459L777.952 367.042L831.285 443.541ZM912 451.667H901.333V363.333H912V451.667ZM928.715 455.376L937.952 459.792L884.619 536.291L875.381 531.874L928.715 455.376ZM1056.85 469.925L1062.19 477.575L969.812 521.742L964.479 514.092L1056.85 469.925ZM1173.33 491.417V500.25H1066.67V491.417H1173.33ZM1276.38 513.5L1271.04 521.15L1178.67 476.983L1184 469.333L1276.38 513.5ZM805.333 540H794.667V451.667H805.333V540Z" fill="white" fill-opacity="0.04"/>
<path fill-rule="evenodd" clip-rule="evenodd" d="M1328 10H1338.67V98.3333H1328V10ZM1462.05 13.7089L1471.29 18.1255L1417.95 94.6245L1408.71 90.2078L1462.05 13.7089ZM1355.38 102.042L1364.62 106.459L1311.29 182.958L1302.05 178.541L1355.38 102.042ZM1590.19 28.2584L1595.52 35.9083L1503.15 80.0749L1497.81 72.4251L1590.19 28.2584ZM1376.85 204.925L1382.19 212.575L1289.81 256.742L1284.48 249.092L1376.85 204.925ZM1706.67 49.75V58.5833H1600V49.75H1706.67ZM1386.67 314.75V323.583H1280V314.75H1386.67ZM1809.71 71.8333L1804.38 79.4832L1712 35.3166L1717.33 27.6667L1809.71 71.8333ZM1383.04 425.167L1377.71 432.817L1285.33 388.65L1290.67 381L1383.04 425.167ZM1897.95 90.2078L1888.71 94.6245L1835.38 18.1255L1844.62 13.7089L1897.95 90.2078ZM1364.62 531.874L1355.38 536.291L1302.05 459.792L1311.29 455.376L1364.62 531.874ZM1483.52 116.592L1488.85 124.242L1396.48 168.408L1391.15 160.758L1483.52 116.592ZM1600 138.083V146.917H1493.33V138.083H1600ZM1703.04 160.167L1697.71 167.817L1605.33 123.65L1610.67 116L1703.04 160.167ZM1791.29 178.541L1782.05 182.958L1728.71 106.459L1737.95 102.042L1791.29 178.541ZM1872 186.667H1861.33V98.3333H1872V186.667ZM1888.71 190.376L1897.95 194.792L1844.62 271.291L1835.38 266.874L1888.71 190.376ZM1493.33 226.417V235.25H1386.67V226.417H1493.33ZM1596.38 248.5L1591.04 256.15L1498.67 211.983L1504 204.333L1596.38 248.5ZM1684.62 266.874L1675.38 271.291L1622.05 194.792L1631.29 190.376L1684.62 266.874ZM1765.33 275H1754.67V186.667H1765.33V275ZM1782.05 278.709L1791.29 283.126L1737.95 359.624L1728.71 355.208L1782.05 278.709ZM1910.19 293.258L1915.52 300.908L1823.15 345.075L1817.81 337.425L1910.19 293.258ZM1489.71 336.833L1484.38 344.483L1392 300.317L1397.33 292.667L1489.71 336.833ZM1577.95 355.208L1568.71 359.624L1515.38 283.126L1524.62 278.709L1577.95 355.208ZM1658.67 363.333H1648V275H1658.67V363.333ZM1675.38 367.042L1684.62 371.459L1631.29 447.958L1622.05 443.541L1675.38 367.042ZM1803.52 381.592L1808.85 389.242L1716.48 433.408L1711.15 425.758L1803.52 381.592ZM1920 403.083V411.917H1813.33V403.083H1920ZM1471.29 443.541L1462.05 447.958L1408.71 371.459L1417.95 367.042L1471.29 443.541ZM1552 451.667H1541.33V363.333H1552V451.667ZM1568.71 455.376L1577.95 459.792L1524.62 536.291L1515.38 531.874L1568.71 455.376ZM1696.85 469.925L1702.19 477.575L1609.81 521.742L1604.48 514.092L1696.85 469.925ZM1813.33 491.417V500.25H1706.67V491.417H1813.33ZM1916.38 513.5L1911.04 521.15L1818.67 476.983L1824 469.333L1916.38 513.5ZM1445.33 540H1434.67V451.667H1445.33V540Z" fill="white" fill-opacity="0.04"/>
<path d="M575.851 391.631C584.597 395.552 874.398 524.319 874.398 524.319C882.54 527.938 883.144 533.667 880.43 561.713C877.414 593.377 874.7 675.703 759.201 691.083C685.017 700.733 590.628 678.116 545.394 609.058C489.906 524.319 541.172 417.566 552.631 400.377C559.869 389.822 567.106 387.711 575.851 391.631Z" fill="#3F8D5C"/>
<path d="M874.399 524.319C873.494 523.715 596.961 401.281 576.153 391.933C536.95 441.992 496.541 576.187 592.136 637.103C693.461 701.939 829.466 606.344 874.399 524.319Z" fill="#F1F9F4"/>
<path d="M862.939 518.891C862.035 518.288 601.485 403.091 581.883 394.346C545.093 441.088 509.81 572.569 599.072 629.564C693.763 690.48 821.022 595.789 862.939 518.891Z" fill="#F1F9F4"/>
<path d="M677.478 460.388L566.805 492.353C559.266 494.766 553.536 500.797 551.727 508.336C545.997 533.969 554.139 578.6 578.566 598.202C589.121 606.344 604.5 603.63 611.135 591.869L684.414 470.641C688.335 465.514 685.922 457.975 677.478 460.388ZM720.602 469.133C720.602 469.133 764.63 559.903 768.852 568.649C773.074 577.394 787.85 582.822 798.707 577.092C830.974 560.205 845.449 539.698 856.607 516.177C829.768 504.416 728.744 459.483 728.744 459.483C721.507 456.166 716.682 461.292 720.602 469.133ZM694.668 474.863C689.843 483.005 627.118 591.266 621.388 600.614C615.658 610.264 619.277 623.231 629.53 628.358C666.622 647.959 722.713 629.564 748.949 607.249C755.583 601.519 762.519 591.869 758.599 582.52C754.678 573.172 715.777 481.497 712.46 474.561C708.841 466.419 700.096 466.117 694.668 474.863Z" fill="#B9DFC7"/>
<path d="M665.416 474.259C661.194 475.465 634.958 483.306 631.942 484.512C627.72 486.02 625.308 489.639 626.213 492.051C627.117 494.765 631.339 495.369 635.561 493.861C637.973 492.956 656.972 482.1 664.209 478.18C654.861 485.417 633.45 506.526 630.736 509.24C626.514 513.764 625.609 519.494 628.323 522.208C631.339 524.922 637.069 523.715 641.291 519.192C644.909 515.272 666.923 480.592 668.733 477.275C670.542 473.958 669.939 473.053 665.416 474.259ZM695.873 523.715C695.873 517.081 700.095 492.655 701.302 486.623C702.508 481.798 705.825 481.195 706.73 488.131C707.634 495.067 711.856 517.383 711.856 523.715C711.856 530.048 708.238 533.667 703.714 533.667C699.492 533.667 695.873 530.35 695.873 523.715ZM748.948 494.765C745.33 489.337 738.997 479.989 736.584 476.37C734.473 472.751 736.886 470.037 742.012 473.656C747.139 477.275 754.075 482.401 758.297 485.719C763.122 489.639 764.027 494.765 760.709 497.781C757.392 500.797 752.567 500.194 748.948 494.765Z" fill="#F1F9F4"/>
<path d="M774.414 664.145C779.455 661.566 782.127 656.711 780.382 653.301C778.638 649.89 773.136 649.217 768.095 651.796C763.054 654.376 760.382 659.231 762.127 662.641C763.872 666.051 769.373 666.725 774.414 664.145Z" fill="#B9DFC7"/>
<path d="M809.752 666.044C814.624 663.158 816.991 658.147 815.038 654.851C813.086 651.555 807.554 651.223 802.682 654.109C797.81 656.995 795.443 662.007 797.395 665.302C799.348 668.598 804.88 668.93 809.752 666.044Z" fill="#B9DFC7"/>
<path d="M819.847 635.386C824.36 631.966 826.143 626.718 823.829 623.665C821.515 620.613 815.981 620.911 811.468 624.331C806.955 627.752 805.173 632.999 807.486 636.052C809.8 639.105 815.334 638.807 819.847 635.386Z" fill="#B9DFC7"/>
<path d="M681.7 438.373C656.67 427.215 608.119 406.106 592.437 399.17C581.581 405.804 563.186 433.548 558.662 463.101C556.853 473.957 563.789 480.893 574.645 477.878C574.645 477.878 676.272 449.832 681.097 448.626C685.922 447.118 687.128 440.786 681.7 438.373Z" fill="#B9DFC7"/>
<path d="M972.008 655.983C969.992 655.983 968.184 655.647 966.584 654.975C964.984 654.271 963.72 653.311 962.792 652.095C961.864 650.847 961.352 649.423 961.256 647.823H965.768C965.896 649.135 966.504 650.207 967.592 651.039C968.712 651.871 970.168 652.287 971.96 652.287C973.624 652.287 974.936 651.919 975.896 651.183C976.856 650.447 977.336 649.519 977.336 648.399C977.336 647.247 976.824 646.399 975.8 645.855C974.776 645.279 973.192 644.719 971.048 644.175C969.096 643.663 967.496 643.151 966.248 642.639C965.032 642.095 963.976 641.311 963.08 640.287C962.216 639.231 961.784 637.855 961.784 636.159C961.784 634.815 962.184 633.583 962.984 632.463C963.784 631.343 964.92 630.463 966.392 629.823C967.864 629.151 969.544 628.815 971.432 628.815C974.344 628.815 976.696 629.551 978.488 631.023C980.28 632.495 981.24 634.511 981.368 637.071H977C976.904 635.695 976.344 634.591 975.32 633.759C974.328 632.927 972.984 632.511 971.288 632.511C969.72 632.511 968.472 632.847 967.544 633.519C966.616 634.191 966.152 635.071 966.152 636.159C966.152 637.023 966.424 637.743 966.968 638.319C967.544 638.863 968.248 639.311 969.08 639.663C969.944 639.983 971.128 640.351 972.632 640.767C974.52 641.279 976.056 641.791 977.24 642.303C978.424 642.783 979.432 643.519 980.264 644.511C981.128 645.503 981.576 646.799 981.608 648.399C981.608 649.839 981.208 651.135 980.408 652.287C979.608 653.439 978.472 654.351 977 655.023C975.56 655.663 973.896 655.983 972.008 655.983ZM989.742 634.095C990.606 632.591 991.886 631.343 993.582 630.351C995.31 629.327 997.31 628.815 999.582 628.815C1001.92 628.815 1004.03 629.375 1005.92 630.495C1007.84 631.615 1009.34 633.199 1010.43 635.247C1011.52 637.263 1012.06 639.615 1012.06 642.303C1012.06 644.959 1011.52 647.327 1010.43 649.407C1009.34 651.487 1007.84 653.103 1005.92 654.255C1004.03 655.407 1001.92 655.983 999.582 655.983C997.342 655.983 995.358 655.487 993.63 654.495C991.934 653.471 990.638 652.207 989.742 650.703V668.031H985.374V629.247H989.742V634.095ZM1007.6 642.303C1007.6 640.319 1007.2 638.591 1006.4 637.119C1005.6 635.647 1004.51 634.527 1003.13 633.759C1001.79 632.991 1000.3 632.607 998.67 632.607C997.07 632.607 995.582 633.007 994.206 633.807C992.862 634.575 991.774 635.711 990.942 637.215C990.142 638.687 989.742 640.399 989.742 642.351C989.742 644.335 990.142 646.079 990.942 647.583C991.774 649.055 992.862 650.191 994.206 650.991C995.582 651.759 997.07 652.143 998.67 652.143C1000.3 652.143 1001.79 651.759 1003.13 650.991C1004.51 650.191 1005.6 649.055 1006.4 647.583C1007.2 646.079 1007.6 644.319 1007.6 642.303ZM1019.78 633.519C1020.55 632.015 1021.64 630.847 1023.04 630.015C1024.48 629.183 1026.23 628.767 1028.28 628.767V633.279H1027.12C1022.23 633.279 1019.78 635.935 1019.78 641.247V655.551H1015.41V629.247H1019.78V633.519ZM1033.17 624.975C1032.34 624.975 1031.64 624.687 1031.06 624.111C1030.49 623.535 1030.2 622.831 1030.2 621.999C1030.2 621.167 1030.49 620.463 1031.06 619.887C1031.64 619.311 1032.34 619.023 1033.17 619.023C1033.97 619.023 1034.65 619.311 1035.19 619.887C1035.77 620.463 1036.05 621.167 1036.05 621.999C1036.05 622.831 1035.77 623.535 1035.19 624.111C1034.65 624.687 1033.97 624.975 1033.17 624.975ZM1035.29 629.247V655.551H1030.92V629.247H1035.29ZM1045.66 632.847V648.351C1045.66 649.631 1045.93 650.543 1046.47 651.087C1047.02 651.599 1047.96 651.855 1049.31 651.855H1052.52V655.551H1048.59C1046.15 655.551 1044.33 654.991 1043.11 653.871C1041.9 652.751 1041.29 650.911 1041.29 648.351V632.847H1037.88V629.247H1041.29V622.623H1045.66V629.247H1052.52V632.847H1045.66ZM1058.68 651.951H1071.59V655.551H1053.69V651.951L1066.45 632.799H1053.78V629.247H1071.49V632.799L1058.68 651.951ZM1108.58 629.247V655.551H1104.22V651.663C1103.38 653.007 1102.22 654.063 1100.71 654.831C1099.24 655.567 1097.61 655.935 1095.82 655.935C1093.77 655.935 1091.93 655.519 1090.3 654.687C1088.66 653.823 1087.37 652.543 1086.41 650.847C1085.48 649.151 1085.02 647.087 1085.02 644.655V629.247H1089.34V644.079C1089.34 646.671 1089.99 648.671 1091.3 650.079C1092.62 651.455 1094.41 652.143 1096.68 652.143C1099.02 652.143 1100.86 651.423 1102.2 649.983C1103.54 648.543 1104.22 646.447 1104.22 643.695V629.247H1108.58ZM1117.93 634.095C1118.79 632.591 1120.07 631.343 1121.77 630.351C1123.49 629.327 1125.49 628.815 1127.77 628.815C1130.1 628.815 1132.21 629.375 1134.1 630.495C1136.02 631.615 1137.53 633.199 1138.61 635.247C1139.7 637.263 1140.25 639.615 1140.25 642.303C1140.25 644.959 1139.7 647.327 1138.61 649.407C1137.53 651.487 1136.02 653.103 1134.1 654.255C1132.21 655.407 1130.1 655.983 1127.77 655.983C1125.53 655.983 1123.54 655.487 1121.81 654.495C1120.12 653.471 1118.82 652.207 1117.93 650.703V668.031H1113.56V629.247H1117.93V634.095ZM1135.78 642.303C1135.78 640.319 1135.38 638.591 1134.58 637.119C1133.78 635.647 1132.69 634.527 1131.32 633.759C1129.97 632.991 1128.49 632.607 1126.85 632.607C1125.25 632.607 1123.77 633.007 1122.39 633.807C1121.05 634.575 1119.96 635.711 1119.13 637.215C1118.33 638.687 1117.93 640.399 1117.93 642.351C1117.93 644.335 1118.33 646.079 1119.13 647.583C1119.96 649.055 1121.05 650.191 1122.39 650.991C1123.77 651.759 1125.25 652.143 1126.85 652.143C1128.49 652.143 1129.97 651.759 1131.32 650.991C1132.69 650.191 1133.78 649.055 1134.58 647.583C1135.38 646.079 1135.78 644.319 1135.78 642.303ZM1176.65 629.247L1160.81 667.935H1156.3L1161.48 655.263L1150.87 629.247H1155.72L1163.98 650.559L1172.14 629.247H1176.65ZM1190.11 655.983C1187.65 655.983 1185.41 655.423 1183.39 654.303C1181.41 653.183 1179.84 651.599 1178.69 649.551C1177.57 647.471 1177.01 645.071 1177.01 642.351C1177.01 639.663 1177.58 637.295 1178.74 635.247C1179.92 633.167 1181.52 631.583 1183.54 630.495C1185.55 629.375 1187.81 628.815 1190.3 628.815C1192.8 628.815 1195.06 629.375 1197.07 630.495C1199.09 631.583 1200.67 633.151 1201.82 635.199C1203.01 637.247 1203.6 639.631 1203.6 642.351C1203.6 645.071 1202.99 647.471 1201.78 649.551C1200.59 651.599 1198.98 653.183 1196.93 654.303C1194.88 655.423 1192.61 655.983 1190.11 655.983ZM1190.11 652.143C1191.68 652.143 1193.15 651.775 1194.53 651.039C1195.9 650.303 1197.01 649.199 1197.84 647.727C1198.7 646.255 1199.14 644.463 1199.14 642.351C1199.14 640.239 1198.72 638.447 1197.89 636.975C1197.06 635.503 1195.97 634.415 1194.62 633.711C1193.28 632.975 1191.82 632.607 1190.26 632.607C1188.66 632.607 1187.18 632.975 1185.84 633.711C1184.53 634.415 1183.47 635.503 1182.67 636.975C1181.87 638.447 1181.47 640.239 1181.47 642.351C1181.47 644.495 1181.86 646.303 1182.62 647.775C1183.42 649.247 1184.48 650.351 1185.79 651.087C1187.1 651.791 1188.54 652.143 1190.11 652.143ZM1230.27 629.247V655.551H1225.9V651.663C1225.07 653.007 1223.9 654.063 1222.4 654.831C1220.93 655.567 1219.29 655.935 1217.5 655.935C1215.45 655.935 1213.61 655.519 1211.98 654.687C1210.35 653.823 1209.05 652.543 1208.09 650.847C1207.17 649.151 1206.7 647.087 1206.7 644.655V629.247H1211.02V644.079C1211.02 646.671 1211.68 648.671 1212.99 650.079C1214.3 651.455 1216.09 652.143 1218.37 652.143C1220.7 652.143 1222.54 651.423 1223.89 649.983C1225.23 648.543 1225.9 646.447 1225.9 643.695V629.247H1230.27ZM1239.61 633.519C1240.38 632.015 1241.47 630.847 1242.88 630.015C1244.32 629.183 1246.06 628.767 1248.11 628.767V633.279H1246.96C1242.06 633.279 1239.61 635.935 1239.61 641.247V655.551H1235.25V629.247H1239.61V633.519ZM1292.78 628.767C1294.83 628.767 1296.65 629.199 1298.25 630.063C1299.85 630.895 1301.12 632.159 1302.05 633.855C1302.97 635.551 1303.44 637.615 1303.44 640.047V655.551H1299.12V640.671C1299.12 638.047 1298.46 636.047 1297.15 634.671C1295.87 633.263 1294.13 632.559 1291.92 632.559C1289.65 632.559 1287.84 633.295 1286.49 634.767C1285.15 636.207 1284.48 638.303 1284.48 641.055V655.551H1280.16V640.671C1280.16 638.047 1279.5 636.047 1278.19 634.671C1276.91 633.263 1275.17 632.559 1272.96 632.559C1270.69 632.559 1268.88 633.295 1267.53 634.767C1266.19 636.207 1265.52 638.303 1265.52 641.055V655.551H1261.15V629.247H1265.52V633.039C1266.38 631.663 1267.53 630.607 1268.97 629.871C1270.45 629.135 1272.06 628.767 1273.82 628.767C1276.03 628.767 1277.98 629.263 1279.68 630.255C1281.37 631.247 1282.64 632.703 1283.47 634.623C1284.21 632.767 1285.42 631.327 1287.12 630.303C1288.81 629.279 1290.7 628.767 1292.78 628.767ZM1332.2 641.391C1332.2 642.223 1332.15 643.103 1332.06 644.031H1311.03C1311.19 646.623 1312.07 648.655 1313.67 650.127C1315.31 651.567 1317.27 652.287 1319.58 652.287C1321.47 652.287 1323.03 651.855 1324.28 650.991C1325.56 650.095 1326.46 648.911 1326.97 647.439H1331.67C1330.97 649.967 1329.56 652.031 1327.45 653.631C1325.34 655.199 1322.71 655.983 1319.58 655.983C1317.08 655.983 1314.84 655.423 1312.86 654.303C1310.91 653.183 1309.37 651.599 1308.25 649.551C1307.13 647.471 1306.57 645.071 1306.57 642.351C1306.57 639.631 1307.11 637.247 1308.2 635.199C1309.29 633.151 1310.81 631.583 1312.76 630.495C1314.75 629.375 1317.02 628.815 1319.58 628.815C1322.07 628.815 1324.28 629.359 1326.2 630.447C1328.12 631.535 1329.59 633.039 1330.62 634.959C1331.67 636.847 1332.2 638.991 1332.2 641.391ZM1327.69 640.479C1327.69 638.815 1327.32 637.391 1326.59 636.207C1325.85 634.991 1324.84 634.079 1323.56 633.471C1322.31 632.831 1320.92 632.511 1319.39 632.511C1317.18 632.511 1315.29 633.215 1313.72 634.623C1312.19 636.031 1311.31 637.983 1311.08 640.479H1327.69ZM1333.94 642.303C1333.94 639.615 1334.48 637.263 1335.57 635.247C1336.66 633.199 1338.14 631.615 1340.03 630.495C1341.95 629.375 1344.08 628.815 1346.42 628.815C1348.72 628.815 1350.72 629.311 1352.42 630.303C1354.11 631.295 1355.38 632.543 1356.21 634.047V629.247H1360.62V655.551H1356.21V650.655C1355.34 652.191 1354.05 653.471 1352.32 654.495C1350.62 655.487 1348.64 655.983 1346.37 655.983C1344.03 655.983 1341.92 655.407 1340.03 654.255C1338.14 653.103 1336.66 651.487 1335.57 649.407C1334.48 647.327 1333.94 644.959 1333.94 642.303ZM1356.21 642.351C1356.21 640.367 1355.81 638.639 1355.01 637.167C1354.21 635.695 1353.12 634.575 1351.74 633.807C1350.4 633.007 1348.91 632.607 1347.28 632.607C1345.65 632.607 1344.16 632.991 1342.82 633.759C1341.47 634.527 1340.4 635.647 1339.6 637.119C1338.8 638.591 1338.4 640.319 1338.4 642.303C1338.4 644.319 1338.8 646.079 1339.6 647.583C1340.4 649.055 1341.47 650.191 1342.82 650.991C1344.16 651.759 1345.65 652.143 1347.28 652.143C1348.91 652.143 1350.4 651.759 1351.74 650.991C1353.12 650.191 1354.21 649.055 1355.01 647.583C1355.81 646.079 1356.21 644.335 1356.21 642.351ZM1369.97 620.031V655.551H1365.61V620.031H1369.97ZM1384.33 655.983C1382.31 655.983 1380.51 655.647 1378.91 654.975C1377.31 654.271 1376.04 653.311 1375.11 652.095C1374.19 650.847 1373.67 649.423 1373.58 647.823H1378.09C1378.22 649.135 1378.83 650.207 1379.91 651.039C1381.03 651.871 1382.49 652.287 1384.28 652.287C1385.95 652.287 1387.26 651.919 1388.22 651.183C1389.18 650.447 1389.66 649.519 1389.66 648.399C1389.66 647.247 1389.15 646.399 1388.12 645.855C1387.1 645.279 1385.51 644.719 1383.37 644.175C1381.42 643.663 1379.82 643.151 1378.57 642.639C1377.35 642.095 1376.3 641.311 1375.4 640.287C1374.54 639.231 1374.11 637.855 1374.11 636.159C1374.11 634.815 1374.51 633.583 1375.31 632.463C1376.11 631.343 1377.24 630.463 1378.71 629.823C1380.19 629.151 1381.87 628.815 1383.75 628.815C1386.67 628.815 1389.02 629.551 1390.81 631.023C1392.6 632.495 1393.56 634.511 1393.69 637.071H1389.32C1389.23 635.695 1388.67 634.591 1387.64 633.759C1386.65 632.927 1385.31 632.511 1383.61 632.511C1382.04 632.511 1380.79 632.847 1379.87 633.519C1378.94 634.191 1378.47 635.071 1378.47 636.159C1378.47 637.023 1378.75 637.743 1379.29 638.319C1379.87 638.863 1380.57 639.311 1381.4 639.663C1382.27 639.983 1383.45 640.351 1384.95 640.767C1386.84 641.279 1388.38 641.791 1389.56 642.303C1390.75 642.783 1391.75 643.519 1392.59 644.511C1393.45 645.503 1393.9 646.799 1393.93 648.399C1393.93 649.839 1393.53 651.135 1392.73 652.287C1391.93 653.439 1390.79 654.351 1389.32 655.023C1387.88 655.663 1386.22 655.983 1384.33 655.983Z" fill="#F1F9F4"/>
<path d="M1011.44 558.724H1068.55V592H966.367V559.904L1021.12 493.588H966.839V460.312H1067.37V492.408L1011.44 558.724ZM1200.74 524.032C1200.74 527.808 1200.5 531.741 1200.03 535.832H1108.7C1109.33 544.013 1111.92 550.307 1116.48 554.712C1121.2 558.96 1126.95 561.084 1133.71 561.084C1143.78 561.084 1150.78 556.836 1154.72 548.34H1197.67C1195.47 556.993 1191.45 564.781 1185.63 571.704C1179.97 578.627 1172.81 584.055 1164.16 587.988C1155.5 591.921 1145.83 593.888 1135.13 593.888C1122.23 593.888 1110.74 591.135 1100.67 585.628C1090.6 580.121 1082.74 572.255 1077.07 562.028C1071.41 551.801 1068.58 539.844 1068.58 526.156C1068.58 512.468 1071.33 500.511 1076.84 490.284C1082.5 480.057 1090.37 472.191 1100.44 466.684C1110.51 461.177 1122.07 458.424 1135.13 458.424C1147.87 458.424 1159.2 461.099 1169.11 466.448C1179.02 471.797 1186.73 479.428 1192.24 489.34C1197.9 499.252 1200.74 510.816 1200.74 524.032ZM1159.44 513.412C1159.44 506.489 1157.08 500.983 1152.36 496.892C1147.64 492.801 1141.74 490.756 1134.66 490.756C1127.89 490.756 1122.15 492.723 1117.43 496.656C1112.87 500.589 1110.03 506.175 1108.93 513.412H1159.44ZM1261.44 593.888C1249.95 593.888 1239.73 591.921 1230.76 587.988C1221.79 584.055 1214.71 578.705 1209.52 571.94C1204.33 565.017 1201.42 557.308 1200.79 548.812H1240.67C1241.14 553.375 1243.27 557.072 1247.04 559.904C1250.82 562.736 1255.46 564.152 1260.97 564.152C1266 564.152 1269.86 563.208 1272.53 561.32C1275.36 559.275 1276.78 556.679 1276.78 553.532C1276.78 549.756 1274.81 547.003 1270.88 545.272C1266.95 543.384 1260.57 541.339 1251.76 539.136C1242.32 536.933 1234.46 534.652 1228.16 532.292C1221.87 529.775 1216.44 525.92 1211.88 520.728C1207.32 515.379 1205.03 508.22 1205.03 499.252C1205.03 491.7 1207.08 484.856 1211.17 478.72C1215.42 472.427 1221.55 467.471 1229.58 463.852C1237.76 460.233 1247.44 458.424 1258.61 458.424C1275.13 458.424 1288.11 462.515 1297.55 470.696C1307.14 478.877 1312.65 489.733 1314.07 503.264H1276.78C1276.15 498.701 1274.1 495.083 1270.64 492.408C1267.34 489.733 1262.93 488.396 1257.43 488.396C1252.71 488.396 1249.09 489.34 1246.57 491.228C1244.05 492.959 1242.79 495.397 1242.79 498.544C1242.79 502.32 1244.76 505.152 1248.69 507.04C1252.79 508.928 1259.08 510.816 1267.57 512.704C1277.33 515.221 1285.27 517.739 1291.41 520.256C1297.55 522.616 1302.9 526.549 1307.46 532.056C1312.18 537.405 1314.62 544.643 1314.77 553.768C1314.77 561.477 1312.57 568.4 1308.17 574.536C1303.92 580.515 1297.7 585.235 1289.52 588.696C1281.5 592.157 1272.14 593.888 1261.44 593.888ZM1398.7 557.78V592H1378.17C1363.54 592 1352.13 588.46 1343.95 581.38C1335.77 574.143 1331.68 562.421 1331.68 546.216V493.824H1315.63V460.312H1331.68V428.216H1372.03V460.312H1398.46V493.824H1372.03V546.688C1372.03 550.621 1372.98 553.453 1374.86 555.184C1376.75 556.915 1379.9 557.78 1384.3 557.78H1398.7Z" fill="#F1F9F4"/>
<defs>
<linearGradient id="paint0_linear_19_69" x1="960" y1="0" x2="960" y2="1080" gradientUnits="userSpaceOnUse">
<stop stop-color="#52B175"/>
<stop offset="1" stop-color="#234B32"/>
</linearGradient>
</defs>
</svg>
