<svg width="24" height="24" viewBox="0 0 24 24" xmlns="http://www.w3.org/2000/svg"><path fill="currentColor" d="M5 19V5zm.616 1q-.691 0-1.153-.462T4 18.384V5.616q0-.691.463-1.153T5.616 4h12.769q.69 0 1.153.463T20 5.616v7.076q0 .213-.144.357t-.357.143t-.356-.143t-.143-.357V5.616q0-.231-.192-.424T18.384 5H5.616q-.231 0-.424.192T5 5.616v12.769q0 .23.192.423t.423.192h7.077q.213 0 .357.144t.143.357t-.143.356t-.357.143zm14.751-.5H16q-.213 0-.356-.144t-.144-.357t.144-.356T16 18.5h4.367l-1.727-1.766q-.14-.14-.13-.34q.01-.202.155-.351q.134-.137.341-.137t.348.14l2.369 2.389q.243.242.243.565t-.243.566l-2.388 2.388q-.14.14-.342.133t-.35-.156q-.137-.137-.137-.331t.14-.335zm-8.867-7V16q0 .213.144.356t.357.144t.356-.144T12.5 16v-3.5H16q.213 0 .356-.144t.144-.357t-.144-.356T16 11.5h-3.5V8q0-.213-.144-.356t-.357-.144t-.356.144T11.5 8v3.5H8q-.213 0-.356.144t-.144.357t.144.356T8 12.5z"/></svg>