<?xml version="1.0" encoding="UTF-8"?>
<!-- Generated by Pixelmator Pro 3.5.11 -->
<svg width="24" height="24" viewBox="0 0 24 24" xmlns="http://www.w3.org/2000/svg">
    <g id="Group">
        <path id="Path" fill="#34d399" stroke="none" d="M 15.925 17.311001 L 12.347 11.065 C 12.244 10.885 12.051 10.773 11.844 10.773 C 11.637 10.772 11.444 10.883 11.34 11.063 L 6.824 18.886 L 2.794 18.886 L 11.845 3.208 L 22.41 21.368999 L 0.581 21.368999 C 0.26 21.368999 0 21.629 0 21.948999 C 0 22.27 0.26 22.530001 0.581 22.530001 L 23.419001 22.530001 C 23.627001 22.530001 23.819 22.419001 23.922001 22.239 C 24.025999 22.059 24.025999 21.837 23.921 21.657 L 12.345 1.759001 C 12.241 1.579 12.049 1.469999 11.842 1.469999 C 11.635 1.469999 11.444 1.580999 11.34 1.76 L 1.285 19.177 C 1.182 19.357 1.182 19.577999 1.285 19.757999 C 1.389 19.937 1.581 20.048 1.788 20.048 L 7.159 20.048 C 7.367 20.048 7.558 19.937 7.662 19.757 L 11.841 12.518 L 14.918 17.889 C 15.077 18.167 15.432 18.263 15.71 18.104 C 15.988 17.944 16.084999 17.59 15.925 17.311001 Z"/>
        <path id="path1" fill="#34d399" stroke="none" d="M 6.322 17.423 L 11.842 7.865 L 17.594999 17.889 C 17.754999 18.167 18.110001 18.263 18.388 18.104 C 18.666 17.944 18.763 17.589001 18.603001 17.311001 L 12.346 6.413 C 12.243 6.233 12.051 6.122 11.844 6.121 C 11.636 6.121 11.444 6.232 11.34 6.412001 L 5.317 16.843 C 5.156 17.121 5.252 17.475 5.529 17.636 C 5.807 17.796 6.162 17.701 6.322 17.423 L 6.322 17.423 Z"/>
        <path id="path2" fill="#34d399" stroke="none" d="M 11.34 6.991001 L 18.167999 18.886 L 16.827 18.886 L 12.347 11.065 C 12.187 10.786 11.833 10.69 11.555 10.85 C 11.276 11.009 11.18 11.364 11.339 11.642 L 15.988 19.756001 C 16.09 19.934999 16.284 20.047001 16.490999 20.047001 L 19.171 20.047001 C 19.379 20.047001 19.569 19.937 19.673 19.757999 C 19.777 19.577999 19.778 19.358 19.674 19.177999 L 12.346 6.413 C 12.187 6.135 11.832 6.039 11.554 6.198 C 11.276 6.358 11.18 6.712999 11.34 6.991001 L 11.34 6.991001 Z"/>
    </g>
</svg>
