<?xml version="1.0" encoding="UTF-8" standalone="no"?><!DOCTYPE svg PUBLIC "-//W3C//DTD SVG 1.1//EN" "http://www.w3.org/Graphics/SVG/1.1/DTD/svg11.dtd"><svg width="100%" height="100%" viewBox="0 0 24 24" version="1.1" xmlns="http://www.w3.org/2000/svg" xmlns:xlink="http://www.w3.org/1999/xlink" xml:space="preserve" xmlns:serif="http://www.serif.com/" style="fill-rule:evenodd;clip-rule:evenodd;stroke-linejoin:round;stroke-miterlimit:2;"><g><path d="M15.925,17.311l-3.578,-6.246c-0.103,-0.18 -0.296,-0.292 -0.503,-0.292c-0.207,-0.001 -0.4,0.11 -0.504,0.29l-4.516,7.823l-4.03,0l9.051,-15.678l10.565,18.161l-21.829,-0c-0.321,-0 -0.581,0.26 -0.581,0.58c-0,0.321 0.26,0.581 0.581,0.581l22.838,-0c0.208,-0 0.4,-0.111 0.503,-0.291c0.104,-0.18 0.104,-0.402 -0.001,-0.582l-11.576,-19.898c-0.104,-0.18 -0.296,-0.289 -0.503,-0.289c-0.207,0 -0.398,0.111 -0.502,0.29l-10.055,17.417c-0.103,0.18 -0.103,0.401 0,0.581c0.104,0.179 0.296,0.29 0.503,0.29l5.371,-0c0.208,-0 0.399,-0.111 0.503,-0.291l4.179,-7.239l3.077,5.371c0.159,0.278 0.514,0.374 0.792,0.215c0.278,-0.16 0.375,-0.514 0.215,-0.793Z" style="fill:#059669;fill-rule:nonzero;"/><path d="M6.322,17.423l5.52,-9.558l5.753,10.024c0.16,0.278 0.515,0.374 0.793,0.215c0.278,-0.16 0.375,-0.515 0.215,-0.793l-6.257,-10.898c-0.103,-0.18 -0.295,-0.291 -0.502,-0.292c-0.208,0 -0.4,0.111 -0.504,0.291l-6.023,10.431c-0.161,0.278 -0.065,0.632 0.212,0.793c0.278,0.16 0.633,0.065 0.793,-0.213l0,0Z" style="fill:#059669;fill-rule:nonzero;"/><path d="M11.34,6.991l6.828,11.895l-1.341,0l-4.48,-7.821c-0.16,-0.279 -0.514,-0.375 -0.792,-0.215c-0.279,0.159 -0.375,0.514 -0.216,0.792l4.649,8.114c0.102,0.179 0.296,0.291 0.503,0.291l2.68,-0c0.208,-0 0.398,-0.11 0.502,-0.289c0.104,-0.18 0.105,-0.4 0.001,-0.58l-7.328,-12.765c-0.159,-0.278 -0.514,-0.374 -0.792,-0.215c-0.278,0.16 -0.374,0.515 -0.214,0.793l-0,-0Z" style="fill:#059669;fill-rule:nonzero;"/></g></svg>