<svg width="50" height="50" viewBox="0 0 50 50" fill="none" xmlns="http://www.w3.org/2000/svg">
<g clip-path="url(#clip0_1779_47533)">
<rect width="50" height="50" rx="11.9391" fill="url(#paint0_linear_1779_47533)"/>
<g filter="url(#filter0_d_1779_47533)">
<rect width="50" height="50" rx="10.1585" fill="url(#paint1_linear_1779_47533)"/>
<g filter="url(#filter1_di_1779_47533)">
<path fill-rule="evenodd" clip-rule="evenodd" d="M40.8509 36.8122L26.3031 6.81982C26.0619 6.31481 25.5533 6 24.999 6C24.4447 6 23.9361 6.32137 23.6883 6.81982L9.14708 36.8122C8.87973 37.3631 8.98406 38.0189 9.40139 38.4649C9.81872 38.9044 10.4708 39.0421 11.0316 38.7994L20.5975 34.6675C20.6497 34.6413 20.7083 34.6347 20.7736 34.6347C20.9561 34.6347 21.1126 34.7462 21.1778 34.9036L23.6557 41.0818C23.8774 41.6327 24.4121 42 25.0055 42H25.012C25.6054 42 26.1401 41.6327 26.3618 41.0752L28.781 34.9036C28.8462 34.7528 29.0027 34.6413 29.1788 34.6413C29.2309 34.6413 29.2831 34.6478 29.3287 34.6675L38.9794 38.8125C39.5402 39.0552 40.1858 38.9175 40.6031 38.478C41.0204 38.0386 41.1182 37.3631 40.8509 36.8122ZM24.6435 8.48905L24.0243 33.8864C24.011 34.433 24.4504 34.8832 24.9971 34.8832C25.546 34.8832 25.9863 34.4294 25.9697 33.8807L25.2019 8.48742C25.1974 8.33651 25.0737 8.21653 24.9227 8.21653C24.7711 8.21653 24.6472 8.33748 24.6435 8.48905Z" fill="url(#paint2_linear_1779_47533)"/>
</g>
</g>
</g>
<defs>
<filter id="filter0_d_1779_47533" x="-1.43415" y="-0.597561" width="52.8683" height="52.8683" filterUnits="userSpaceOnUse" color-interpolation-filters="sRGB">
<feFlood flood-opacity="0" result="BackgroundImageFix"/>
<feColorMatrix in="SourceAlpha" type="matrix" values="0 0 0 0 0 0 0 0 0 0 0 0 0 0 0 0 0 0 127 0" result="hardAlpha"/>
<feOffset dy="0.836585"/>
<feGaussianBlur stdDeviation="0.717073"/>
<feComposite in2="hardAlpha" operator="out"/>
<feColorMatrix type="matrix" values="0 0 0 0 0 0 0 0 0 0 0 0 0 0 0 0 0 0 0.25 0"/>
<feBlend mode="normal" in2="BackgroundImageFix" result="effect1_dropShadow_1779_47533"/>
<feBlend mode="normal" in="SourceGraphic" in2="effect1_dropShadow_1779_47533" result="shape"/>
</filter>
<filter id="filter1_di_1779_47533" x="4.21951" y="3.25122" width="41.561" height="45.561" filterUnits="userSpaceOnUse" color-interpolation-filters="sRGB">
<feFlood flood-opacity="0" result="BackgroundImageFix"/>
<feColorMatrix in="SourceAlpha" type="matrix" values="0 0 0 0 0 0 0 0 0 0 0 0 0 0 0 0 0 0 127 0" result="hardAlpha"/>
<feOffset dy="2.03171"/>
<feGaussianBlur stdDeviation="2.39024"/>
<feComposite in2="hardAlpha" operator="out"/>
<feColorMatrix type="matrix" values="0 0 0 0 0 0 0 0 0 0 0 0 0 0 0 0 0 0 0.2 0"/>
<feBlend mode="normal" in2="BackgroundImageFix" result="effect1_dropShadow_1779_47533"/>
<feBlend mode="normal" in="SourceGraphic" in2="effect1_dropShadow_1779_47533" result="shape"/>
<feColorMatrix in="SourceAlpha" type="matrix" values="0 0 0 0 0 0 0 0 0 0 0 0 0 0 0 0 0 0 127 0" result="hardAlpha"/>
<feOffset dy="0.597561"/>
<feGaussianBlur stdDeviation="0.119512"/>
<feComposite in2="hardAlpha" operator="arithmetic" k2="-1" k3="1"/>
<feColorMatrix type="matrix" values="0 0 0 0 1 0 0 0 0 1 0 0 0 0 1 0 0 0 1 0"/>
<feBlend mode="normal" in2="shape" result="effect2_innerShadow_1779_47533"/>
</filter>
<linearGradient id="paint0_linear_1779_47533" x1="24.9977" y1="49.9881" x2="24.9977" y2="0" gradientUnits="userSpaceOnUse">
<stop stop-color="#006DEE"/>
<stop offset="0.3113" stop-color="#1E9DF5"/>
<stop offset="0.6136" stop-color="#36C5FA"/>
<stop offset="0.8531" stop-color="#45DDFE"/>
<stop offset="1" stop-color="#4BE6FF"/>
</linearGradient>
<linearGradient id="paint1_linear_1779_47533" x1="24.9977" y1="49.9881" x2="24.9977" y2="0" gradientUnits="userSpaceOnUse">
<stop stop-color="#006DEE"/>
<stop offset="0.3113" stop-color="#1E9DF5"/>
<stop offset="0.6136" stop-color="#36C5FA"/>
<stop offset="0.8531" stop-color="#45DDFE"/>
<stop offset="1" stop-color="#4BE6FF"/>
</linearGradient>
<linearGradient id="paint2_linear_1779_47533" x1="25" y1="6" x2="25" y2="42" gradientUnits="userSpaceOnUse">
<stop stop-color="#F3F3F3"/>
<stop offset="1" stop-color="white"/>
</linearGradient>
<clipPath id="clip0_1779_47533">
<rect width="50" height="50" rx="11.9391" fill="white"/>
</clipPath>
</defs>
</svg>
