<svg width="90" height="90" viewBox="0 0 90 90" fill="none" xmlns="http://www.w3.org/2000/svg">
<path fill-rule="evenodd" clip-rule="evenodd" d="M85 12.8125C85 8.50062 81.4994 5 77.1875 5H12.8125C8.50062 5 5 8.50062 5 12.8125V77.1875C5 81.4994 8.50062 85 12.8125 85H77.1875C81.4994 85 85 81.4994 85 77.1875V12.8125Z" fill="#134881"/>
<path fill-rule="evenodd" clip-rule="evenodd" d="M79.1406 76.0399C79.1273 77.7535 77.732 79.1406 76.0156 79.1406H44.4773L30.9969 55.791H79.1406V76.0399ZM10.8594 76.0156V62.3057L40.5617 10.8594H52.1695L27.0766 54.3227L41.4047 79.1406H13.9844C12.2594 79.1406 10.8594 77.7404 10.8594 76.0156ZM48.9195 53.1284H37.1836C35.8734 53.1284 34.6625 52.4409 34.0078 51.306C33.3523 50.1718 33.3523 48.7734 34.0078 47.6392C36.6148 43.1236 39.8789 37.4697 39.8789 37.4697L48.9195 53.1284ZM76.0156 10.8594C77.732 10.8594 79.1273 12.2465 79.1406 13.9601V53.1284H51.9937L41.4148 34.8085L55.2422 10.8594H76.0156Z" fill="url(#paint0_radial_942_16380)"/>
<defs>
<radialGradient id="paint0_radial_942_16380" cx="0" cy="0" r="1" gradientUnits="userSpaceOnUse" gradientTransform="translate(63.0492 -1.97335) scale(81.1141 81.1141)">
<stop stop-color="#6BE1FB"/>
<stop offset="1" stop-color="#38BDFA"/>
</radialGradient>
</defs>
</svg>
