<svg width="90" height="90" viewBox="0 0 90 90" fill="none" xmlns="http://www.w3.org/2000/svg">
<path d="M11.824 8.44961L56.189 5.18244C61.6368 4.71515 63.0387 5.02817 66.4628 7.51569L80.6247 17.4696C82.9614 19.1813 83.7402 19.6473 83.7402 21.5132V76.1069C83.7402 79.5283 82.4939 81.5517 78.1362 81.8613L26.6157 84.9725C23.3447 85.1286 21.7878 84.6623 20.0748 82.4836L9.64584 68.952C7.77711 66.4614 7 64.5978 7 62.4177V13.8913C7 11.0933 8.24667 8.75944 11.824 8.44961Z" fill="white"/>
<path fill-rule="evenodd" clip-rule="evenodd" d="M56.189 5.18244L11.824 8.44961C8.24667 8.75944 7 11.0933 7 13.8913V62.4177C7 64.5978 7.77711 66.4614 9.64584 68.952L20.0748 82.4836C21.7878 84.6623 23.3447 85.1286 26.6157 84.9725L78.1362 81.8613C82.4939 81.5517 83.7402 79.5283 83.7402 76.1069V21.5132C83.7402 19.7446 83.0404 19.2337 80.9776 17.7276C80.864 17.6447 80.7466 17.5588 80.6247 17.4696L66.4628 7.51569C63.0387 5.02817 61.6368 4.71515 56.189 5.18244ZM27.7839 20.6177C23.5775 20.9018 22.6217 20.9663 20.233 19.0257L14.1585 14.2043C13.539 13.5808 13.8497 12.8031 15.4052 12.6488L58.057 9.53783C61.6362 9.22608 63.5038 10.4724 64.9055 11.5606L72.2209 16.8493C72.5323 17.0042 73.3093 17.9362 72.375 17.9362L28.3268 20.5812C28.1415 20.5936 27.9618 20.6057 27.7877 20.6175L27.7845 20.6177L27.7839 20.6177ZM22.8776 75.6393V29.2915C22.8776 27.2699 23.5003 26.336 25.3672 26.1791L75.955 23.2249C77.6707 23.0694 78.4477 24.1589 78.4477 26.1791V72.2159C78.4477 74.2394 78.1356 75.9528 75.3328 76.1069L26.9239 78.9078C24.1224 79.0619 22.8776 78.1302 22.8776 75.6393ZM70.6667 31.7776C70.9772 33.1788 70.6667 34.5787 69.2631 34.7363L66.9306 35.201V69.4179C64.9055 70.5066 63.0381 71.1286 61.4819 71.1286C58.9905 71.1286 58.3664 70.3504 56.5002 68.0186L41.2435 44.0666V67.241L46.0713 68.3305C46.0713 68.3305 46.0713 71.1286 42.1762 71.1286L31.4385 71.7517C31.1265 71.1286 31.4385 69.5746 32.5277 69.2632L35.3298 68.4866V37.846L31.4391 37.5342C31.1271 36.1329 31.9042 34.1128 34.085 33.9558L45.6042 33.1795L61.4819 57.4433V35.9786L57.4337 35.5141C57.1229 33.8011 58.3664 32.5572 59.9232 32.4031L70.6667 31.7776Z" fill="#000008"/>
</svg>
