<svg xmlns="http://www.w3.org/2000/svg" width="50" height="50" fill="none"><g clip-path="url(#a)"><rect width="50" height="50" fill="url(#b)" rx="11.939"/><g filter="url(#c)"><rect width="50" height="50" fill="url(#d)" rx="10.159"/><g filter="url(#e)"><path fill="url(#f)" fill-rule="evenodd" d="M40.85 36.812 26.304 6.82A1.443 1.443 0 0 0 25 6c-.554 0-1.063.321-1.31.82L9.146 36.812a1.475 1.475 0 0 0 .254 1.653c.418.44 1.07.577 1.63.334l9.566-4.132a.385.385 0 0 1 .177-.032c.182 0 .339.111.404.269l2.478 6.178c.221.55.756.918 1.35.918h.006c.593 0 1.128-.367 1.35-.925l2.419-6.171a.44.44 0 0 1 .548-.237l9.65 4.145c.561.243 1.207.105 1.624-.334.417-.44.515-1.115.248-1.666ZM24.644 8.49l-.619 25.397a.973.973 0 1 0 1.946-.005l-.768-25.394a.28.28 0 0 0-.559.002Z" clip-rule="evenodd"/></g></g></g><defs><linearGradient id="b" x1="24.998" x2="24.998" y1="49.988" y2="0" gradientUnits="userSpaceOnUse"><stop stop-color="#006DEE"/><stop offset=".311" stop-color="#1E9DF5"/><stop offset=".614" stop-color="#36C5FA"/><stop offset=".853" stop-color="#45DDFE"/><stop offset="1" stop-color="#4BE6FF"/></linearGradient><linearGradient id="d" x1="24.998" x2="24.998" y1="49.988" y2="0" gradientUnits="userSpaceOnUse"><stop stop-color="#006DEE"/><stop offset=".311" stop-color="#1E9DF5"/><stop offset=".614" stop-color="#36C5FA"/><stop offset=".853" stop-color="#45DDFE"/><stop offset="1" stop-color="#4BE6FF"/></linearGradient><linearGradient id="f" x1="25" x2="25" y1="6" y2="42" gradientUnits="userSpaceOnUse"><stop stop-color="#F3F3F3"/><stop offset="1" stop-color="#fff"/></linearGradient><filter id="c" width="52.868" height="52.868" x="-1.434" y="-.598" color-interpolation-filters="sRGB" filterUnits="userSpaceOnUse"><feFlood flood-opacity="0" result="BackgroundImageFix"/><feColorMatrix in="SourceAlpha" result="hardAlpha" values="0 0 0 0 0 0 0 0 0 0 0 0 0 0 0 0 0 0 127 0"/><feOffset dy=".837"/><feGaussianBlur stdDeviation=".717"/><feComposite in2="hardAlpha" operator="out"/><feColorMatrix values="0 0 0 0 0 0 0 0 0 0 0 0 0 0 0 0 0 0 0.25 0"/><feBlend in2="BackgroundImageFix" result="effect1_dropShadow_1779_47533"/><feBlend in="SourceGraphic" in2="effect1_dropShadow_1779_47533" result="shape"/></filter><filter id="e" width="41.561" height="45.561" x="4.22" y="3.251" color-interpolation-filters="sRGB" filterUnits="userSpaceOnUse"><feFlood flood-opacity="0" result="BackgroundImageFix"/><feColorMatrix in="SourceAlpha" result="hardAlpha" values="0 0 0 0 0 0 0 0 0 0 0 0 0 0 0 0 0 0 127 0"/><feOffset dy="2.032"/><feGaussianBlur stdDeviation="2.39"/><feComposite in2="hardAlpha" operator="out"/><feColorMatrix values="0 0 0 0 0 0 0 0 0 0 0 0 0 0 0 0 0 0 0.2 0"/><feBlend in2="BackgroundImageFix" result="effect1_dropShadow_1779_47533"/><feBlend in="SourceGraphic" in2="effect1_dropShadow_1779_47533" result="shape"/><feColorMatrix in="SourceAlpha" result="hardAlpha" values="0 0 0 0 0 0 0 0 0 0 0 0 0 0 0 0 0 0 127 0"/><feOffset dy=".598"/><feGaussianBlur stdDeviation=".12"/><feComposite in2="hardAlpha" k2="-1" k3="1" operator="arithmetic"/><feColorMatrix values="0 0 0 0 1 0 0 0 0 1 0 0 0 0 1 0 0 0 1 0"/><feBlend in2="shape" result="effect2_innerShadow_1779_47533"/></filter><clipPath id="a"><rect width="50" height="50" fill="#fff" rx="11.939"/></clipPath></defs></svg>